<svg id="e3892422-480d-43b5-8f85-6e78da285298" data-name="レイヤー 1" xmlns="http://www.w3.org/2000/svg" viewBox="0 0 16.02 14.91"><path d="M16,4.41a3.86,3.86,0,0,1-.29.69,1.33,1.33,0,0,1-1.79.32,18.34,18.34,0,0,0-2.66-1.33,9.38,9.38,0,0,0-6.56,0A19.89,19.89,0,0,0,2.05,5.4a1.38,1.38,0,0,1-1.41.12A1.22,1.22,0,0,1,.47,3.46,16.35,16.35,0,0,1,2.83,2.08,11.7,11.7,0,0,1,7.93,1a12.44,12.44,0,0,1,6.32,1.66,5.14,5.14,0,0,1,.95.61,7.6,7.6,0,0,1,.8,1Z" transform="translate(0.02 -1)"/><path d="M7.94,6.37a7.52,7.52,0,0,1,3.39.84,1.22,1.22,0,0,1,.61,1.6,1.24,1.24,0,0,1-1.57.68c-.41-.13-.8-.32-1.21-.44A4.54,4.54,0,0,0,6,9.33l-.42.15a1.24,1.24,0,0,1-1-2.27A7.59,7.59,0,0,1,7.94,6.37Z" transform="translate(0.02 -1)"/><path d="M10,13.85a2.07,2.07,0,0,1-2,2.06,2.11,2.11,0,0,1-2-2.06,2,2,0,0,1,2-2.06A2,2,0,0,1,10,13.85Z" transform="translate(0.02 -1)"/></svg>