<?xml version="1.0" encoding="utf-8"?>
<!-- Generator: Adobe Illustrator 22.1.0, SVG Export Plug-In . SVG Version: 6.00 Build 0)  -->
<svg version="1.1" id="レイヤー_1" xmlns="http://www.w3.org/2000/svg" xmlns:xlink="http://www.w3.org/1999/xlink" x="0px"
	 y="0px" viewBox="0 0 512 512" style="enable-background:new 0 0 512 512;" xml:space="preserve">
<style type="text/css">
	.st0{fill:#BEC6D2;}
</style>
<path class="st0" d="M84.2,170c0-50.6,20.9-91.7,62.6-123c38.7-28.3,83.4-39.5,134.1-33.5c53.7,6,92.4,28.3,116.2,67.1
	c22.4,32.8,28.3,67.1,17.9,102.8c-8.9,34.3-29.1,61.1-60.4,80.5l-33.5,22.4c-11.9,6-18.7,17.9-20.1,35.8c0,11.9,0,26.8,0,44.7h-87.2
	v-35.8c0-38.7,13.4-67.8,40.2-87.2l55.9-40.2c13.4-8.9,21.6-20.1,24.6-33.5c4.5-19.4,1.5-36.5-8.9-51.4
	c-19.4-29.8-49.9-40.2-91.7-31.3c-40.2,8.9-63.4,36.5-69.3,82.7H84.2z M258.6,498.6c-16.4,0-29.8-6-40.2-17.9
	c-7.5-8.9-11.2-19.4-11.2-31.3c0-11.9,3.7-23.1,11.2-33.5c8.9-11.9,20.9-17.9,35.8-17.9c14.9-1.5,27.6,3,38,13.4
	c10.4,10.4,15.6,22.4,15.6,35.8c1.5,13.4-2.2,25.3-11.2,35.8C287.7,493.3,275,498.6,258.6,498.6z"/>
</svg>
